<?xml version="1.0" encoding="UTF-8"?>
<svg version="1.1" xmlns="http://www.w3.org/2000/svg" width="1024" height="1024">
<path d="M0 0 C4.62823592 0.58216589 8.96602591 1.44698433 13.43847656 2.76586914 C14.66955139 3.12616714 15.90062622 3.48646515 17.16900635 3.85768127 C18.13997631 4.14556109 18.13997631 4.14556109 19.13056183 4.43925667 C21.17215704 5.04450418 23.21543126 5.64375373 25.25921631 6.24156189 C29.59106476 7.50983669 33.92060819 8.78586909 38.25 10.0625 C43.28297924 11.5458035 48.31686916 13.02590847 53.3526535 14.4996624 C55.36504232 15.09014963 57.37592568 15.68557613 59.38677979 16.28126526 C61.21447906 16.81698402 61.21447906 16.81698402 63.07910156 17.36352539 C64.15274963 17.68027725 65.22639771 17.99702911 66.33258057 18.32337952 C69.02600124 19.12293706 69.02600124 19.12293706 72 19 C72 19.66 72 20.32 72 21 C72.98097656 21.11214844 73.96195313 21.22429687 74.97265625 21.33984375 C80.02041968 22.05950225 84.76456284 23.684422 89.59570312 25.27148438 C94.58165927 26.82478407 98.7763438 27.22967598 104 27 C103.67 27.66 103.34 28.32 103 29 C103.66 29.33 104.32 29.66 105 30 C105.33 29.34 105.66 28.68 106 28 C106.33 28.66 106.66 29.32 107 30 C109.76796178 30.94422501 112.49833027 31.78322704 115.3125 32.5625 C116.08529297 32.78357422 116.85808594 33.00464844 117.65429688 33.23242188 C120.39850788 34.01344839 123.14023254 34.78832606 125.91088867 35.47045898 C128.46014518 36.11663608 130.97668021 36.85269439 133.5 37.59375 C134.551875 37.90183594 135.60375 38.20992187 136.6875 38.52734375 C138.89583333 39.17578125 141.10416667 39.82421875 143.3125 40.47265625 C144.364375 40.78074219 145.41625 41.08882812 146.5 41.40625 C147.4590625 41.68791016 148.418125 41.96957031 149.40625 42.25976562 C151.00078907 42.71483363 152.6012664 43.1503166 154.20996094 43.55249023 C156.29300327 44.07325082 158.2457352 44.79419849 160.25 45.5625 C161.30960938 45.96662109 161.30960938 45.96662109 162.390625 46.37890625 C162.92171875 46.58386719 163.4528125 46.78882813 164 47 C165.91283088 60.637359 167.44847587 74.31767147 169 88 C170.57467041 88.49197876 170.57467041 88.49197876 172.18115234 88.99389648 C176.06922095 90.20914704 179.95659015 91.42662149 183.84375 92.64477539 C185.52747859 93.17207735 187.21139723 93.69877286 188.89550781 94.22485352 C191.31365156 94.98034542 193.73110749 95.73800278 196.1484375 96.49609375 C196.9036972 96.73154404 197.65895691 96.96699432 198.43710327 97.20957947 C203.77225659 98.88612829 203.77225659 98.88612829 206 100 C206.53681946 102.41650391 206.53681946 102.41650391 206.9543457 105.8515625 C207.03472989 106.50685944 207.11511408 107.16215637 207.19793415 107.83731079 C208.56489983 119.32822411 209.61713538 130.85755909 210.73046875 142.375 C211.00002939 145.14724528 211.2703122 147.91942009 211.54049683 150.69160461 C212.19739447 157.43744189 212.85104809 164.1835899 213.50345898 170.92986244 C214.0374343 176.45101678 214.57268136 181.97204662 215.10861206 187.49301147 C220.74771705 245.59547847 226.25365029 303.71039946 231.70687783 361.83058214 C232.37841244 368.98735195 233.05038234 376.14408086 233.72265625 383.30078125 C233.79477821 384.06864362 233.86690017 384.83650599 233.94120765 385.62763691 C235.97002217 407.22404 238.04062301 428.81582523 240.17195129 450.40238953 C241.76450797 466.53885123 243.31857369 482.67882986 244.859375 498.8203125 C244.97863279 500.06926237 245.09789059 501.31821224 245.22076225 502.60500908 C246.18946582 512.75160362 247.15658399 522.89834913 248.12359619 533.04510498 C248.85703877 540.74047642 249.5910439 548.43579379 250.32581329 556.13103867 C250.66371332 559.67227699 251.00079176 563.21359286 251.33782959 566.75491333 C251.54386305 568.91359853 251.74993589 571.07227998 251.95605469 573.23095703 C252.04746231 574.19381119 252.13886993 575.15666534 252.23304749 576.1486969 C252.77104831 581.77225683 253.36232533 587.38684251 254 593 C253.45400146 593.29543701 252.90800293 593.59087402 252.34545898 593.89526367 C240.61082551 600.252184 228.93338829 606.69868672 217.32543945 613.28417969 C211.60633326 616.52841624 205.87677693 619.75154712 200.125 622.9375 C193.09226429 626.83308009 186.07496382 630.75554627 179.0625 634.6875 C159.50165151 645.64999292 139.88885566 656.51786931 120.25244141 667.34423828 C113.37204163 671.13791207 106.49405013 674.93580619 99.625 678.75 C98.93656006 679.13196533 98.24812012 679.51393066 97.53881836 679.9074707 C96.57987671 680.44053833 96.57987671 680.44053833 95.6015625 680.984375 C95.0024707 681.31501953 94.40337891 681.64566406 93.78613281 681.98632812 C92.53706165 682.69520503 91.3028852 683.43068568 90.08105469 684.18554688 C88.42886224 685.19498038 86.71731005 686.10582883 85 687 C84.01 686.67 83.02 686.34 82 686 C81.00439453 683.75366211 81.00439453 683.75366211 80.1328125 680.77734375 C79.80667969 679.6879248 79.48054687 678.59850586 79.14453125 677.47607422 C78.80808594 676.30834473 78.47164062 675.14061523 78.125 673.9375 C77.4195375 671.56372282 76.71380853 669.19002481 76.0078125 666.81640625 C75.49589355 665.07254639 75.49589355 665.07254639 74.97363281 663.29345703 C73.69614152 658.97215374 72.35701025 654.6718623 71 650.375 C70.608125 649.12460937 70.21625 647.87421875 69.8125 646.5859375 C69.544375 645.73257813 69.27625 644.87921875 69 644 C61.71261611 646.89769072 54.74921043 649.99478674 48 654 C48 654.66 48 655.32 48 656 C45.60375977 655.37695312 45.60375977 655.37695312 43 654 C41.94506836 651.32617187 41.94506836 651.32617187 41.33984375 647.96875 C41.10330078 646.76605469 40.86675781 645.56335938 40.62304688 644.32421875 C40.39681641 643.06222656 40.17058594 641.80023437 39.9375 640.5 C39.48304914 638.00752161 39.01370689 635.51769828 38.52734375 633.03125 C38.32874756 631.92330078 38.13015137 630.81535156 37.92553711 629.67382812 C37.28122395 626.86004153 37.28122395 626.86004153 34.94215393 625.83288574 C34.30124313 625.55803345 33.66033234 625.28318115 33 625 C33.10626709 624.37579163 33.21253418 623.75158325 33.32202148 623.10845947 C34.44629136 614.73355986 32.99666372 607.49960673 31.0625 599.359375 C30.74007553 597.94753743 30.4191466 596.5353576 30.09960938 595.12286377 C29.25543692 591.40942084 28.3916212 587.70082992 27.52325439 583.99298096 C26.6693401 580.33259413 25.83326067 576.66815267 24.99609375 573.00390625 C23.67292395 567.22123385 22.33976047 561.44095867 21 555.66210938 C18.9679608 546.89132989 16.97889145 538.11102909 15 529.328125 C14.76917725 528.30393589 14.76917725 528.30393589 14.53369141 527.25905609 C13.68809288 523.50626982 12.84353054 519.75325161 12 516 C11.34 516 10.68 516 10 516 C10 515.01 10 514.02 10 513 C9.34 512.67 8.68 512.34 8 512 C9 509 9 509 10 507 C9.4228132 504.41861181 8.78643695 501.91463642 8.0625 499.375 C7.86720703 498.66859375 7.67191406 497.9621875 7.47070312 497.234375 C6.98685508 495.48780156 6.49424877 493.74365876 6 492 C5.67950684 492.92184082 5.35901367 493.84368164 5.02880859 494.79345703 C-2.53473205 516.52651675 -10.30772937 538.171678 -18.31329346 559.74568176 C-20.48351217 565.59657317 -22.6374255 571.45332015 -24.78515625 577.3125 C-25.41345003 579.02483667 -26.0417862 580.73715779 -26.67016602 582.44946289 C-27.56963745 584.9004892 -28.46861359 587.35168791 -29.365448 589.80368042 C-30.96479965 594.1751101 -32.57594193 598.5417279 -34.21191406 602.89959717 C-34.74913696 604.33140105 -35.28352683 605.76427034 -35.81542969 607.19805908 C-36.6045232 609.31521253 -37.4092188 611.42574624 -38.21875 613.53515625 C-38.68216797 614.75726807 -39.14558594 615.97937988 -39.62304688 617.23852539 C-40.30463867 618.60545532 -40.30463867 618.60545532 -41 620 C-43.93091415 620.97697138 -45.24365103 621.04997696 -48.23016357 620.79203796 C-49.09294922 620.72057556 -49.95573486 620.64911316 -50.84466553 620.57548523 C-51.78892395 620.4908754 -52.73318237 620.40626556 -53.70605469 620.3190918 C-55.20211243 620.19245651 -55.20211243 620.19245651 -56.72839355 620.06326294 C-60.04342328 619.78116217 -63.35761445 619.49020611 -66.671875 619.19921875 C-68.98898781 619.00025972 -71.30614767 618.80184787 -73.62335205 618.60395813 C-79.75036247 618.079207 -85.87669953 617.54695651 -92.00292969 617.01318359 C-98.15000391 616.47889919 -104.29768147 615.95165996 -110.4453125 615.42382812 C-120.56326812 614.55407147 -130.6811796 613.68373359 -140.79780197 612.79857922 C-146.07081658 612.3376505 -151.34441521 611.88714823 -156.61975098 611.45352173 C-158.21674269 611.32027229 -158.21674269 611.32027229 -159.84599686 611.18433094 C-161.8757477 611.01521904 -163.90576786 610.84930012 -165.93607712 610.68702984 C-166.83625187 610.61139718 -167.73642662 610.53576452 -168.66387939 610.45783997 C-169.4557729 610.39328519 -170.2476664 610.32873041 -171.06355667 610.26221943 C-173 610 -173 610 -175 609 C-176.01381276 606.76365386 -176.92020021 604.5554482 -177.78515625 602.26171875 C-178.17688271 601.24595512 -178.17688271 601.24595512 -178.57652283 600.20967102 C-179.12859548 598.77425735 -179.67729661 597.33754315 -180.22290039 595.8996582 C-181.05610191 593.70435753 -181.89914186 591.51304883 -182.74414062 589.32226562 C-183.27922981 587.9273072 -183.81375347 586.53213169 -184.34765625 585.13671875 C-184.59870621 584.48241379 -184.84975616 583.82810883 -185.1084137 583.15397644 C-186.25261746 580.13280025 -187.31992584 577.16192259 -188 574 C-188.95261719 573.95101562 -189.90523438 573.90203125 -190.88671875 573.8515625 C-192.14097656 573.77679687 -193.39523437 573.70203125 -194.6875 573.625 C-195.92886719 573.55539062 -197.17023438 573.48578125 -198.44921875 573.4140625 C-201.79925134 573.02340963 -204.11078252 572.72321185 -207 571 C-208.36328125 568.46875 -208.36328125 568.46875 -209.3125 565.5 C-209.63863281 564.5203125 -209.96476562 563.540625 -210.30078125 562.53125 C-211 560 -211 560 -211 558 C-212.32 557.67 -213.64 557.34 -215 557 C-214.34 556.34 -213.68 555.68 -213 555 C-213.21297729 554.45320587 -213.42595459 553.90641174 -213.64538574 553.3430481 C-215.85535417 547.66727318 -218.06064223 541.98969623 -220.26318359 536.31103516 C-221.08652 534.19012316 -221.911061 532.06967838 -222.73681641 529.94970703 C-223.92144408 526.90778795 -225.10177265 523.86423164 -226.28125 520.8203125 C-226.65310425 519.86818878 -227.0249585 518.91606506 -227.40808105 517.93508911 C-227.74843384 517.05432709 -228.08878662 516.17356506 -228.43945312 515.26611328 C-228.7414563 514.48889923 -229.04345947 513.71168518 -229.35461426 512.91091919 C-230 511 -230 511 -230 509 C-230.66 508.67 -231.32 508.34 -232 508 C-232.8515625 505.71484375 -232.8515625 505.71484375 -233.625 502.9375 C-233.88539063 502.01839844 -234.14578125 501.09929687 -234.4140625 500.15234375 C-234.70410156 499.08693359 -234.70410156 499.08693359 -235 498 C-236.65 497.67 -238.3 497.34 -240 497 C-240 495.02 -240 493.04 -240 491 C-239.34 491 -238.68 491 -238 491 C-239.08569847 488.01377234 -240.19657528 485.03755082 -241.3125 482.0625 C-241.62123047 481.21236328 -241.92996094 480.36222656 -242.24804688 479.48632812 C-242.55419922 478.67744141 -242.86035156 477.86855469 -243.17578125 477.03515625 C-243.45333252 476.2862915 -243.73088379 475.53742676 -244.0168457 474.76586914 C-244.93681225 472.64603495 -244.93681225 472.64603495 -248 472 C-247.95875 470.948125 -247.9175 469.89625 -247.875 468.8125 C-247.99147875 465.25989827 -248.47208068 463.15133359 -250 460 C-250.66 460 -251.32 460 -252 460 C-253.32 457.36 -254.64 454.72 -256 452 C-255.34 451.34 -254.68 450.68 -254 450 C-254.6496875 448.42798828 -254.6496875 448.42798828 -255.3125 446.82421875 C-255.87527335 445.44542404 -256.43775835 444.06651161 -257 442.6875 C-257.28617188 441.99720703 -257.57234375 441.30691406 -257.8671875 440.59570312 C-259.08910744 437.58454326 -260 435.28113016 -260 432 C-261.15856312 435.47568935 -261.5177351 438.8697339 -261.90795898 442.49047852 C-261.99267456 443.25204254 -262.07739014 444.01360657 -262.16467285 444.79824829 C-262.44493538 447.32479996 -262.72051802 449.85183944 -262.99609375 452.37890625 C-263.19136668 454.14756914 -263.38693304 455.91619966 -263.58277893 457.68479919 C-264.09947329 462.35799038 -264.61222245 467.03160633 -265.12414551 471.70532227 C-265.63839825 476.39429762 -266.15622976 481.08287737 -266.67382812 485.77148438 C-267.25925434 491.07683162 -267.84430033 496.38221911 -268.42686462 501.68788147 C-268.56068338 502.90620368 -268.56068338 502.90620368 -268.69720554 504.14913845 C-268.87246946 505.74664987 -269.0473648 507.34420177 -269.22186947 508.9417963 C-269.66100111 512.95424089 -270.10928835 516.96535862 -270.57278442 520.97506714 C-270.66544366 521.78455024 -270.75810289 522.59403334 -270.85356998 523.42804623 C-271.02855543 524.95365264 -271.2059416 526.47898657 -271.38629055 528.00396824 C-272.03496725 533.68712663 -272.22648587 539.28752307 -272 545 C-272.33 545 -272.66 545 -273 545 C-273.10215285 545.91883091 -273.20430571 546.83766182 -273.3095541 547.78433609 C-275.79358176 570.12619909 -278.28074725 592.46771106 -280.77121639 614.80885696 C-281.97550769 625.61280385 -283.17877361 636.41686311 -284.37963867 647.22119141 C-285.42613311 656.63660495 -286.47453817 666.05180344 -287.5252524 675.46674705 C-288.08169236 680.45334603 -288.63716528 685.44004851 -289.19035149 690.42700958 C-289.71083061 695.11884187 -290.23385983 699.8103828 -290.75886345 704.50171089 C-290.95129754 706.22536016 -291.14279219 707.9491146 -291.33328629 709.67297935 C-291.59316121 712.02342555 -291.8563887 714.37347274 -292.12046814 716.72344971 C-292.19537426 717.40827809 -292.27028039 718.09310647 -292.3474564 718.79868722 C-292.70331084 721.93464169 -293.1254475 724.96340825 -294 728 C-301.18883034 725.66645298 -308.25106643 723.06768673 -315.3125 720.375 C-316.56502055 719.89859438 -317.81754342 719.42219487 -319.07006836 718.94580078 C-335.14383489 712.82397854 -351.18047816 706.60510501 -367.22053528 700.3956604 C-374.20575535 697.69225253 -381.19411267 694.99705708 -388.18359375 692.3046875 C-391.16230607 691.15654749 -394.14096301 690.00826391 -397.11959839 688.85992432 C-399.01467219 688.12968292 -400.90995071 687.39997251 -402.80545044 686.6708374 C-408.54335108 684.46342459 -414.27679872 682.24527598 -420 680 C-420.66112793 679.740979 -421.32225586 679.48195801 -422.00341797 679.21508789 C-423.73487637 678.53223691 -425.46141778 677.83695381 -427.1875 677.140625 C-428.10917969 676.76969727 -429.03085937 676.39876953 -429.98046875 676.01660156 C-432 675 -432 675 -433 673 C-433.34926822 670.95777148 -433.65438395 668.90791386 -433.9375 666.85546875 C-434.11023438 665.62119141 -434.28296875 664.38691406 -434.4609375 663.11523438 C-434.63882813 661.81908203 -434.81671875 660.52292969 -435 659.1875 C-435.35290772 656.63914825 -435.70702747 654.09096399 -436.0625 651.54296875 C-436.21847656 650.40883545 -436.37445313 649.27470215 -436.53515625 648.10620117 C-436.68855469 647.08115479 -436.84195313 646.0561084 -437 645 C-437.07081787 644.09306396 -437.14163574 643.18612793 -437.21459961 642.25170898 C-437.81238845 639.7692761 -437.81238845 639.7692761 -440.37329102 638.56201172 C-441.92294556 638.00151123 -441.92294556 638.00151123 -443.50390625 637.4296875 C-445.20450195 636.79740234 -445.20450195 636.79740234 -446.93945312 636.15234375 C-448.73286133 635.52005859 -448.73286133 635.52005859 -450.5625 634.875 C-451.73103516 634.44574219 -452.89957031 634.01648438 -454.10351562 633.57421875 C-456.37668473 632.74085162 -458.65347082 631.917272 -460.93408203 631.10449219 C-463.5064198 630.1778115 -466.04780875 629.20081023 -468.58984375 628.1953125 C-472.02687491 626.7794775 -472.02687491 626.7794775 -476 627 C-476.95291742 623.88982563 -477.01011715 621.46188836 -476.65454102 618.23828125 C-476.55436172 617.29629883 -476.45418243 616.35431641 -476.35096741 615.38378906 C-476.17917213 613.86350098 -476.17917213 613.86350098 -476.00390625 612.3125 C-475.89151108 611.25901367 -475.77911591 610.20552734 -475.66331482 609.12011719 C-475.30302769 605.74598821 -474.93376852 602.37293718 -474.5625 599 C-474.07726687 594.58409142 -473.60077184 590.16735454 -473.12890625 585.75 C-473.0164003 584.75266846 -472.90389435 583.75533691 -472.78797913 582.7277832 C-472.13753603 576.6395268 -471.94298714 570.72454229 -472.15562439 564.60253906 C-471.99070231 561.84451281 -471.31552996 560.38651099 -470 558 C-469.75926806 555.17914272 -469.75926806 555.17914272 -469.875 552.25 C-469.89304687 551.26515625 -469.91109375 550.2803125 -469.9296875 549.265625 C-469.95289063 548.51796875 -469.97609375 547.7703125 -470 547 C-469.67 547 -469.34 547 -469 547 C-467.89352654 537.11270381 -466.78907309 527.22518398 -465.68688583 517.33740902 C-465.1744897 512.7411947 -464.66151313 508.14504706 -464.14697266 503.54907227 C-462.03346859 484.66624362 -459.94123508 465.78107903 -457.97119904 446.88266182 C-457.7946705 445.19276541 -457.61682246 443.50300624 -457.43755341 441.81339836 C-457.19021411 439.47700262 -456.94834352 437.14010376 -456.70800781 434.80297852 C-456.63560631 434.12761362 -456.5632048 433.45224873 -456.48860931 432.75641823 C-456.14431157 429.3457783 -455.9774069 425.99845992 -456.01824951 422.57481384 C-456 419 -456 419 -455 418 C-454.599617 415.14471393 -454.2481773 412.30263513 -453.9375 409.4375 C-453.84662109 408.63119141 -453.75574219 407.82488281 -453.66210938 406.99414062 C-453.43752551 404.99652623 -453.21826764 402.9983144 -453 401 C-453.66 400.67 -454.32 400.34 -455 400 C-454.01 400 -453.02 400 -452 400 C-452.016642 398.69120377 -452.033284 397.38240753 -452.0504303 396.03395081 C-452.04809185 391.45974085 -451.70183044 386.99902328 -451.19311523 382.45678711 C-451.10669329 381.64998693 -451.02027134 380.84318676 -450.93123055 380.0119381 C-450.64491667 377.34989069 -450.35179569 374.68864057 -450.05859375 372.02734375 C-449.85285771 370.12798917 -449.64753992 368.22858925 -449.44261169 366.32914734 C-448.89323554 361.2480779 -448.33798296 356.16766619 -447.78170013 351.08734894 C-447.20698511 345.82800905 -446.6382614 340.56802145 -446.06884766 335.30810547 C-444.07743908 316.93160711 -442.0656952 298.55736195 -440.03476906 280.1851902 C-439.78162578 277.89422153 -439.5288846 275.60320889 -439.27629089 273.31217957 C-439.11527201 271.85208051 -438.95424615 270.39198223 -438.79321289 268.93188477 C-438.67725344 267.88027743 -438.67725344 267.88027743 -438.55895138 266.8074255 C-438.18238296 263.39596654 -437.80388153 259.98474058 -437.4213562 256.57394409 C-437.00440723 252.85431656 -436.59171126 249.13423824 -436.1796875 245.4140625 C-435.99762001 243.81119637 -435.99762001 243.81119637 -435.81187439 242.1759491 C-435.35814459 238.05058581 -434.93422918 234.00246765 -434.98876953 229.84912109 C-434.99432861 228.43880615 -434.99432861 228.43880615 -435 227 C-434.67 226.67 -434.34 226.34 -434 226 C-433.77337141 224.60987475 -433.60566459 223.21001382 -433.46484375 221.80859375 C-433.33432617 220.51405273 -433.33432617 220.51405273 -433.20117188 219.19335938 C-433.11416016 218.28392578 -433.02714844 217.37449219 -432.9375 216.4375 C-432.84662109 215.55513672 -432.75574219 214.67277344 -432.66210938 213.76367188 C-432.14275901 208.48035575 -431.90709211 203.30813742 -432 198 C-431.34 198 -430.68 198 -430 198 C-430.02206512 196.73564117 -430.04413025 195.47128235 -430.06686401 194.16860962 C-430.06340881 188.82744059 -429.53635851 183.604246 -428.93017578 178.30224609 C-428.81634552 177.27164063 -428.70251526 176.24103516 -428.5852356 175.17919922 C-428.21003255 171.79339493 -427.82778315 168.40842788 -427.4453125 165.0234375 C-427.18067551 162.65089133 -426.91643022 160.27830144 -426.65255737 157.90567017 C-426.09901645 152.93758529 -425.54225306 147.96987635 -424.98291016 143.00244141 C-424.27014671 136.67212867 -423.5630378 130.34120174 -422.85807991 124.01001549 C-422.18089561 117.93092422 -421.50063921 111.85217774 -420.8203125 105.7734375 C-420.69276707 104.63117077 -420.56522163 103.48890404 -420.43381119 102.31202316 C-419.07834617 90.19014608 -417.69568989 78.07966836 -416 66 C-409.31912079 63.30497897 -402.56520963 61.51611308 -395.57421875 59.8046875 C-393.68765026 59.33625004 -391.80108253 58.86780949 -389.91454315 58.3992548 C-387.89817742 57.89936434 -385.8812605 57.40175792 -383.86416626 56.90481567 C-377.44964732 55.32427962 -371.03862972 53.72963319 -364.6273632 52.13596535 C-363.13468789 51.76500469 -361.64196718 51.39422663 -360.14920235 51.02362633 C-348.4372005 48.11588048 -336.73491379 45.17124336 -325.0390625 42.19921875 C-323.88401309 41.90573925 -323.88401309 41.90573925 -322.70562935 41.60633087 C-315.19417066 39.69731985 -307.68364042 37.78467125 -300.17351532 35.87042141 C-297.39918387 35.16352749 -294.62461551 34.4575666 -291.85000229 33.75177956 C-289.94874638 33.26770971 -288.04786901 32.78215389 -286.14700317 32.29655457 C-285.01028168 32.00734634 -283.87356018 31.71813812 -282.70239258 31.42016602 C-281.71628494 31.16864273 -280.73017731 30.91711945 -279.71418762 30.65797424 C-277.15255104 30.03698147 -274.5883386 29.49656053 -272 29 C-272 28.34 -272 27.68 -272 27 C-271.10023438 27.05929688 -270.20046875 27.11859375 -269.2734375 27.1796875 C-263.55896448 27.17680867 -258.12461467 25.53431723 -252.625 24.125 C-251.52027344 23.85558594 -250.41554688 23.58617187 -249.27734375 23.30859375 C-248.22933594 23.04433594 -247.18132812 22.78007812 -246.1015625 22.5078125 C-245.14588379 22.26691895 -244.19020508 22.02602539 -243.20556641 21.77783203 C-240.82285495 21.22468445 -240.82285495 21.22468445 -240 19 C-238.5459375 19.0309375 -238.5459375 19.0309375 -237.0625 19.0625 C-234.08706427 19.06893952 -231.20106121 18.84133834 -228.24609375 18.49609375 C-227.44743896 18.40384521 -226.64878418 18.31159668 -225.82592773 18.21655273 C-225.22337158 18.14509033 -224.62081543 18.07362793 -224 18 C-223.63237549 18.96711914 -223.26475098 19.93423828 -222.88598633 20.93066406 C-221.49938586 24.57690021 -220.11027065 28.22217427 -218.72045898 31.8671875 C-218.12343649 33.43399029 -217.5270634 35.00104072 -216.93139648 36.56835938 C-213.70978063 45.04372893 -210.45569044 53.48082585 -206.85424805 61.80371094 C-206 64 -206 64 -206 66 C-205.34 65.67 -204.68 65.34 -204 65 C-199.58083337 64.31886416 -195.13086122 63.87049098 -190.6875 63.375 C-189.45064453 63.22804687 -188.21378906 63.08109375 -186.93945312 62.9296875 C-185.74642578 62.795625 -184.55339844 62.6615625 -183.32421875 62.5234375 C-181.6858606 62.336604 -181.6858606 62.336604 -180.0144043 62.14599609 C-176.95474005 61.99780793 -174.89625231 62.00940044 -172 63 C-170.51330566 65.31939697 -170.51330566 65.31939697 -169.29101562 68.43066406 C-168.82505981 69.58741638 -168.359104 70.7441687 -167.87902832 71.93597412 C-167.38777674 73.2123992 -166.89686002 74.48895319 -166.40625 75.765625 C-165.88232615 77.08571025 -165.35653904 78.40505736 -164.82897949 79.72369385 C-163.7376743 82.46026114 -162.65766086 85.20088117 -161.58691406 87.94555664 C-160.11534156 91.71482504 -158.61336412 95.47126914 -157.1015625 99.22460938 C-154.71332236 105.15559144 -152.34299148 111.09349408 -149.97900391 117.03417969 C-147.39757741 123.51970483 -144.8094635 130.00255463 -142.21875 136.484375 C-141.82755981 137.46317375 -141.82755981 137.46317375 -141.4284668 138.46174622 C-135.23097324 153.96256201 -128.92778475 169.41992768 -122.59570312 184.86621094 C-117.93199152 196.24481045 -113.3197235 207.64219729 -108.77001953 219.06689453 C-107.84907576 221.3788897 -106.92506872 223.68965249 -106 226 C-105.731875 225.113125 -105.46375 224.22625 -105.1875 223.3125 C-104.07016847 220.19573311 -102.71060677 217.81566087 -101 215 C-99.17429898 211.45372754 -97.47080075 207.84819239 -95.75 204.25 C-95.22623779 203.15727783 -94.70247559 202.06455566 -94.1628418 200.9387207 C-89.61312593 191.39211462 -85.2306723 181.77294205 -80.88604736 172.13156128 C-77.10737636 163.747473 -73.26375131 155.40034845 -69.30078125 147.1015625 C-68.90975723 146.28132095 -68.51873322 145.46107941 -68.11585999 144.61598206 C-66.21080269 140.62272739 -64.29707869 136.63397086 -62.37036133 132.65112305 C-61.67633051 131.20113571 -60.98255134 129.75102788 -60.2890625 128.30078125 C-59.97000443 127.64908966 -59.65094635 126.99739807 -59.32221985 126.32595825 C-57.52231331 122.54044274 -56.5983738 119.13275821 -56 115 C-55.03428765 113.96684964 -54.03093693 112.96807492 -53 112 C-52.05577194 110.01057151 -51.1859847 107.98486322 -50.375 105.9375 C-49.01480372 102.53700929 -47.63612446 99.25039733 -45.9765625 95.98828125 C-42.04224204 88.19923641 -38.27256281 80.33567164 -34.51757812 72.45898438 C-31.97670865 67.13026344 -29.42686806 61.80625416 -26.85546875 56.4921875 C-20.55849046 43.47549938 -14.3633611 30.41915944 -8.31298828 17.28637695 C-5.63222838 11.47437016 -2.90417349 5.70388032 0 0 Z M-252 455 C-251 457 -251 457 -251 457 Z M-247 468 C-246 470 -246 470 -246 470 Z M-238 491 C-237 493 -237 493 -237 493 Z M-237 493 C-236 495 -236 495 -236 495 Z M35 619 C36 623 36 623 36 623 Z " fill="#AE0308" transform="translate(648,125)"/>
<path d="M0 0 C5.09091519 1.54635123 10.18133574 3.09429883 15.27099609 4.64477539 C17.00322298 5.17210904 18.73564424 5.69880462 20.46826172 6.22485352 C22.95591558 6.980263 25.44286574 7.73795014 27.9296875 8.49609375 C28.70682098 8.73154404 29.48395447 8.96699432 30.28463745 9.20957947 C35.77225659 10.88612829 35.77225659 10.88612829 38 12 C38.53681946 14.41650391 38.53681946 14.41650391 38.9543457 17.8515625 C39.03472989 18.50685944 39.11511408 19.16215637 39.19793415 19.83731079 C40.56489983 31.32822411 41.61713538 42.85755909 42.73046875 54.375 C43.00002939 57.14724528 43.2703122 59.91942009 43.54049683 62.69160461 C44.19739447 69.43744189 44.85104809 76.1835899 45.50345898 82.92986244 C46.0374343 88.45101678 46.57268136 93.97204662 47.10861206 99.49301147 C52.74771705 157.59547847 58.25365029 215.71039946 63.70687783 273.83058214 C64.37841244 280.98735195 65.05038234 288.14408086 65.72265625 295.30078125 C65.79477821 296.06864362 65.86690017 296.83650599 65.94120765 297.62763691 C67.97002217 319.22404 70.04062301 340.81582523 72.17195129 362.40238953 C73.76450797 378.53885123 75.31857369 394.67882986 76.859375 410.8203125 C76.97863279 412.06926237 77.09789059 413.31821224 77.22076225 414.60500908 C78.18946582 424.75160362 79.15658399 434.89834913 80.12359619 445.04510498 C80.85703877 452.74047642 81.5910439 460.43579379 82.32581329 468.13103867 C82.66371332 471.67227699 83.00079176 475.21359286 83.33782959 478.75491333 C83.54386305 480.91359853 83.74993589 483.07227998 83.95605469 485.23095703 C84.04746231 486.19381119 84.13886993 487.15666534 84.23304749 488.1486969 C84.77104831 493.77225683 85.36232533 499.38684251 86 505 C85.45400146 505.29543701 84.90800293 505.59087402 84.34545898 505.89526367 C72.61082551 512.252184 60.93338829 518.69868672 49.32543945 525.28417969 C43.60633326 528.52841624 37.87677693 531.75154712 32.125 534.9375 C25.09226429 538.83308009 18.07496382 542.75554627 11.0625 546.6875 C-8.49834849 557.64999292 -28.11114434 568.51786931 -47.74755859 579.34423828 C-54.62795837 583.13791207 -61.50594987 586.93580619 -68.375 590.75 C-69.06343994 591.13196533 -69.75187988 591.51393066 -70.46118164 591.9074707 C-71.42012329 592.44053833 -71.42012329 592.44053833 -72.3984375 592.984375 C-72.9975293 593.31501953 -73.59662109 593.64566406 -74.21386719 593.98632812 C-75.46293835 594.69520503 -76.6971148 595.43068568 -77.91894531 596.18554688 C-79.57113776 597.19498038 -81.28268995 598.10582883 -83 599 C-83.99 598.67 -84.98 598.34 -86 598 C-86.99560547 595.75366211 -86.99560547 595.75366211 -87.8671875 592.77734375 C-88.35626587 591.14345703 -88.35626587 591.14345703 -88.85522461 589.4765625 C-89.19175049 588.30867187 -89.52827637 587.14078125 -89.875 585.9375 C-90.58182497 583.56113655 -91.28885601 581.18483439 -91.99609375 578.80859375 C-92.33753418 577.64569824 -92.67897461 576.48280273 -93.03076172 575.28466797 C-94.29212069 571.01002727 -95.60484254 566.75284945 -96.9375 562.5 C-97.50791016 560.65921875 -97.50791016 560.65921875 -98.08984375 558.78125 C-98.8977893 556.08204512 -98.8977893 556.08204512 -100 554 C-99.35264893 553.63874023 -98.70529785 553.27748047 -98.03833008 552.90527344 C-86.87322515 546.67148062 -75.71388 540.43115042 -64.625 534.0625 C-54.42013827 528.20671976 -44.13415373 522.50059489 -33.84375 516.796875 C-18.48379906 508.28193051 -3.17462674 499.67651386 12.10784912 491.02340698 C19.46660859 486.85949365 26.84014852 482.72238235 34.21875 478.59375 C35.35924805 477.9553418 36.49974609 477.31693359 37.67480469 476.65917969 C40.4497512 475.10590774 43.22481795 473.55285107 46 472 C41.23352473 421.54559288 41.23352473 421.54559288 36.125 371.125 C33.46170481 345.73891778 30.93989449 320.33987123 28.4375 294.9375 C27.6565905 287.01168516 26.87549099 279.08588912 26.09375 271.16015625 C26.00021051 270.21173229 25.90667103 269.26330833 25.81029701 268.28614426 C24.3822727 253.81266089 22.92863778 239.3421328 21.4375 224.875 C18.44210616 195.77457033 15.5899727 166.65985172 12.72793579 137.54606628 C11.60234182 126.09954924 10.47098024 114.65361574 9.33543873 103.20808125 C8.41415329 93.9211512 7.49561788 84.63395156 6.57883739 75.34657574 C6.01858493 69.67223109 5.45702002 63.99802338 4.89224243 58.3241272 C4.35862093 52.96270826 3.82872831 47.60093284 3.30147552 42.23888397 C3.10706598 40.26830603 2.91135723 38.29785572 2.71417999 36.3275528 C1.50404416 24.22609578 0.56456642 12.1493601 0 0 Z " fill="#FAEEDA" transform="translate(816,213)"/>
<path d="M0 0 C0.66 0 1.32 0 2 0 C3.22177366 3.1391598 4.44299227 6.27853527 5.6640625 9.41796875 C6.24059067 10.89993996 6.24059067 10.89993996 6.82876587 12.41184998 C8.9653437 17.9071718 11.0962617 23.40460462 13.21777344 28.90576172 C14.09040348 31.16767846 14.96312515 33.42955985 15.8359375 35.69140625 C16.27196289 36.82153137 16.70798828 37.95165649 17.15722656 39.11602783 C19.51924368 45.22292892 21.91548401 51.31350747 24.37155151 57.38319397 C25.70702572 60.69033101 27.02058779 64.00591725 28.33074951 67.32315063 C28.93500407 68.83623438 29.54967828 70.34520604 30.17559814 71.84945679 C31.04605236 73.94428518 31.87772996 76.0511487 32.703125 78.1640625 C33.40937012 79.90357178 33.40937012 79.90357178 34.12988281 81.67822266 C35.8533419 87.97192287 34.66248519 94.60686437 34 101 C33.92179646 101.77103184 33.84359291 102.54206367 33.76301956 103.33646011 C33.22304061 108.59571035 32.63983396 113.84957005 32.04231071 119.10256195 C31.70679277 122.05522614 31.37605071 125.00839244 31.04652405 127.96173096 C30.1101847 136.34682161 29.1661458 144.73103593 28.2175293 153.11474609 C27.63417947 158.27321966 27.05677144 163.43233142 26.48288155 168.59186554 C26.26470359 170.54237747 26.04425421 172.49263683 25.82139397 174.44261932 C24.151015 188.68004358 24.151015 188.68004358 24 203 C23.67 203 23.34 203 23 203 C22.89784715 203.91883091 22.79569429 204.83766182 22.6904459 205.78433609 C20.20641824 228.12619909 17.71925275 250.46771106 15.22878361 272.80885696 C14.02449231 283.61280385 12.82122639 294.41686311 11.62036133 305.22119141 C10.57386689 314.63660495 9.52546183 324.05180344 8.4747476 333.46674705 C7.91830764 338.45334603 7.36283472 343.44004851 6.80964851 348.42700958 C6.28916939 353.11884187 5.76614017 357.8103828 5.24113655 362.50171089 C5.04870246 364.22536016 4.85720781 365.9491146 4.66671371 367.67297935 C4.40683879 370.02342555 4.1436113 372.37347274 3.87953186 374.72344971 C3.80462574 375.40827809 3.72971961 376.09310647 3.6525436 376.79868722 C3.29668916 379.93464169 2.8745525 382.96340825 2 386 C-5.18883034 383.66645298 -12.25106643 381.06768673 -19.3125 378.375 C-20.56502055 377.89859438 -21.81754342 377.42219487 -23.07006836 376.94580078 C-39.14383489 370.82397854 -55.18047816 364.60510501 -71.22053528 358.3956604 C-78.20575535 355.69225253 -85.19411267 352.99705708 -92.18359375 350.3046875 C-95.16230607 349.15654749 -98.14096301 348.00826391 -101.11959839 346.85992432 C-103.01467219 346.12968292 -104.90995071 345.39997251 -106.80545044 344.6708374 C-112.54335108 342.46342459 -118.27679872 340.24527598 -124 338 C-124.99169189 337.61146851 -124.99169189 337.61146851 -126.00341797 337.21508789 C-127.73487637 336.53223691 -129.46141778 335.83695381 -131.1875 335.140625 C-132.10917969 334.76969727 -133.03085938 334.39876953 -133.98046875 334.01660156 C-136 333 -136 333 -137 331 C-137.3492967 328.96952946 -137.65440321 326.93137854 -137.9375 324.890625 C-138.11023438 323.66085937 -138.28296875 322.43109375 -138.4609375 321.1640625 C-138.72777344 319.22660156 -138.72777344 319.22660156 -139 317.25 C-139.35357836 314.71345959 -139.70772544 312.17699838 -140.0625 309.640625 C-140.21847656 308.51172852 -140.37445313 307.38283203 -140.53515625 306.21972656 C-140.98007874 303.13798403 -141.47591031 300.06917126 -142 297 C-135.25273453 298.93850337 -128.66866982 301.14498341 -122.10546875 303.6328125 C-121.17525406 303.98233978 -120.24503937 304.33186707 -119.28663635 304.69198608 C-116.25235262 305.83306575 -113.21989361 306.97890785 -110.1875 308.125 C-108.07008012 308.9227733 -105.95256569 309.72029569 -103.83496094 310.51757812 C-99.44376716 312.17157008 -95.05338264 313.82768642 -90.66357422 315.48535156 C-85.16855474 317.55997202 -79.67138666 319.62882126 -74.17329407 321.69528198 C-70.02296598 323.25543668 -65.8733965 324.81760117 -61.72402954 326.38031006 C-59.74799372 327.12426616 -57.77173771 327.86763772 -55.79525757 328.6104126 C-53.04499511 329.64441255 -50.2957987 330.68119709 -47.546875 331.71875 C-46.32986656 332.17536514 -46.32986656 332.17536514 -45.08827209 332.64120483 C-43.96708229 333.06534164 -43.96708229 333.06534164 -42.82324219 333.49804688 C-42.1774823 333.74131714 -41.53172241 333.9845874 -40.86639404 334.23522949 C-38.8546679 335.05955104 -36.93258074 336.00561142 -35 337 C-35.01155624 336.32757263 -35.02311249 335.65514526 -35.03501892 334.96234131 C-35.0986547 328.40397037 -34.73572728 322.02924501 -34.00390625 315.515625 C-33.89533798 314.50380157 -33.78676971 313.49197815 -33.6749115 312.44949341 C-33.43600933 310.22832591 -33.19449479 308.0074382 -32.95068359 305.7868042 C-32.33359539 300.1644127 -31.7325651 294.5403047 -31.12994003 288.9163475 C-30.90639579 286.83212678 -30.68212714 284.74798484 -30.45779419 282.66384888 C-29.20983921 271.05256679 -28.00369917 259.43714193 -26.80859375 247.8203125 C-26.71476347 246.90847891 -26.62093319 245.99664532 -26.52425957 245.0571804 C-26.14068875 241.32909934 -25.75726402 237.60100328 -25.37401104 233.87288952 C-22.38806471 204.82878085 -19.3652117 175.79027827 -16.16796875 146.76855469 C-14.31319387 129.92862821 -12.50776683 113.08374399 -10.72361755 96.2362175 C-10.50180179 94.14201101 -10.27979658 92.04782469 -10.05773926 89.9536438 C-8.51641133 75.41552559 -6.98445186 60.87647628 -5.47164154 46.33536148 C-4.98868705 41.69594316 -4.50400198 37.05670512 -4.01977539 32.41741943 C-3.63272805 28.69923971 -3.24890953 24.980736 -2.86523438 21.26220703 C-2.63165658 19.02114362 -2.39794079 16.78009458 -2.1640625 14.5390625 C-2.06022247 13.52259644 -1.95638245 12.50613037 -1.84939575 11.4588623 C-1.75165863 10.5283606 -1.65392151 9.59785889 -1.55322266 8.63916016 C-1.46996735 7.83451324 -1.38671204 7.02986633 -1.30093384 6.20083618 C-1.01047167 4.07658302 -0.5626276 2.06719806 0 0 Z " fill="#FBEDDA" transform="translate(352,467)"/>
<path d="M0 0 C0.66 0 1.32 0 2 0 C4.01662743 8.74768445 5.69767119 17.55945646 7.40625 26.37109375 C7.73479183 28.06065515 8.06344781 29.75019436 8.39221191 31.43971252 C9.25390718 35.86939704 10.11421806 40.29934923 10.97418213 44.72937012 C12.18419757 50.96133591 13.39606822 57.19294123 14.60778809 63.42457581 C15.2516091 66.73562394 15.89488826 70.04677659 16.53771973 73.35801697 C16.6870269 74.12634385 16.83633408 74.89467073 16.99016571 75.68628025 C17.27702951 77.16326831 17.56336922 78.64035828 17.84912872 80.11756039 C18.74473197 84.73563789 19.68252945 89.34291897 20.68225098 93.93959045 C21.43879565 98.84532345 20.77382155 102.09168848 18.74609375 106.6015625 C16.20941163 112.44421187 14.0890249 118.33995892 12.0625 124.375 C6.90055469 139.50188903 1.34541296 154.47772464 -4.21055603 169.46318054 C-6.4193277 175.4228907 -8.61328112 181.38792137 -10.80078125 187.35546875 C-11.73384631 189.89834893 -12.66704507 192.44118002 -13.60025024 194.98400879 C-14.18895137 196.58931408 -14.77701027 198.19485506 -15.36434937 199.80065918 C-16.96406798 204.17309575 -18.57556528 208.54072459 -20.21191406 212.89959717 C-20.74913696 214.33140105 -21.28352683 215.76427034 -21.81542969 217.19805908 C-22.6045232 219.31521253 -23.4092188 221.42574624 -24.21875 223.53515625 C-24.68216797 224.75726807 -25.14558594 225.97937988 -25.62304688 227.23852539 C-26.07744141 228.14981201 -26.53183594 229.06109863 -27 230 C-29.93091415 230.97697138 -31.24365103 231.04997696 -34.23016357 230.79203796 C-35.09294922 230.72057556 -35.95573486 230.64911316 -36.84466553 230.57548523 C-38.26105316 230.44857048 -38.26105316 230.44857048 -39.70605469 230.3190918 C-40.70342651 230.23466827 -41.70079834 230.15024475 -42.72839355 230.06326294 C-46.04342328 229.78116217 -49.35761445 229.49020611 -52.671875 229.19921875 C-54.98898781 229.00025972 -57.30614767 228.80184787 -59.62335205 228.60395813 C-65.75036247 228.079207 -71.87669953 227.54695651 -78.00292969 227.01318359 C-84.15000391 226.47889919 -90.29768147 225.95165996 -96.4453125 225.42382812 C-106.56326812 224.55407147 -116.6811796 223.68373359 -126.79780197 222.79857922 C-132.07081658 222.3376505 -137.34441521 221.88714823 -142.61975098 221.45352173 C-143.68441212 221.36468877 -144.74907326 221.27585581 -145.84599686 221.18433094 C-147.8757477 221.01521904 -149.90576786 220.84930012 -151.93607712 220.68702984 C-153.28633924 220.57358085 -153.28633924 220.57358085 -154.66387939 220.45783997 C-155.85171965 220.3610078 -155.85171965 220.3610078 -157.06355667 220.26221943 C-159 220 -159 220 -161 219 C-162.01381276 216.76365386 -162.92020021 214.5554482 -163.78515625 212.26171875 C-164.04630722 211.584543 -164.30745819 210.90736725 -164.57652283 210.20967102 C-165.12859548 208.77425735 -165.67729661 207.33754315 -166.22290039 205.8996582 C-167.05610191 203.70435753 -167.89914186 201.51304883 -168.74414062 199.32226562 C-169.27922981 197.9273072 -169.81375347 196.53213169 -170.34765625 195.13671875 C-170.59870621 194.48241379 -170.84975616 193.82810883 -171.1084137 193.15397644 C-172.05443636 190.65608121 -172.94909781 188.22436032 -173.54077148 185.61645508 C-173.69231689 185.0830249 -173.8438623 184.54959473 -174 184 C-174.66 183.67 -175.32 183.34 -176 183 C-160.18111475 183.6815251 -144.41910649 184.9544745 -128.64215088 186.26989746 C-125.961092 186.49266328 -123.27978399 186.71234182 -120.59846878 186.9319973 C-105.38787999 188.17895717 -90.18778626 189.49977649 -75 191 C-74.83065948 190.40134628 -74.66131897 189.80269257 -74.48684692 189.18589783 C-72.62401625 182.77154649 -70.39227964 176.58482041 -67.9296875 170.37890625 C-67.53640259 169.37835709 -67.14311768 168.37780792 -66.73791504 167.34693909 C-65.45417751 164.08390742 -64.16468808 160.82318381 -62.875 157.5625 C-61.97054555 155.26754158 -61.0664158 152.97245518 -60.16259766 150.67724609 C-57.87607064 144.87360596 -55.58470511 139.07188962 -53.29199219 133.27069092 C-51.72436386 129.3022244 -50.15993362 125.33250353 -48.59596252 121.3625946 C-39.22012607 97.5649784 -29.74483808 73.8075738 -20.23027039 50.06512451 C-17.76905861 43.92271222 -15.31273497 37.77836475 -12.859375 31.6328125 C-12.20989496 30.00650427 -11.56039989 28.38020203 -10.91088867 26.75390625 C-9.99968282 24.47234672 -9.08870144 22.19069945 -8.17861938 19.90869141 C-7.36075665 17.85808133 -6.54181991 15.80790317 -5.72265625 13.7578125 C-5.26640869 12.6145752 -4.81016113 11.47133789 -4.34008789 10.29345703 C-2.93584637 6.84233331 -1.47783085 3.42014607 0 0 Z " fill="#FBEDDA" transform="translate(634,515)"/>
<path d="M0 0 C1.48669434 2.31939697 1.48669434 2.31939697 2.70898438 5.43066406 C3.40791809 7.16579254 3.40791809 7.16579254 4.12097168 8.93597412 C4.61222326 10.2123992 5.10313998 11.48895319 5.59375 12.765625 C6.11767385 14.08571025 6.64346096 15.40505736 7.17102051 16.72369385 C8.2623257 19.46026114 9.34233914 22.20088117 10.41308594 24.94555664 C11.88465844 28.71482504 13.38663588 32.47126914 14.8984375 36.22460938 C17.28667764 42.15559144 19.65700852 48.09349408 22.02099609 54.03417969 C24.60242259 60.51970483 27.1905365 67.00255463 29.78125 73.484375 C30.04204346 74.1369075 30.30283691 74.78944 30.5715332 75.46174622 C36.76902676 90.96256201 43.07221525 106.41992768 49.40429688 121.86621094 C54.07025973 133.25030308 58.73416421 144.63608978 63.22607422 156.09033203 C63.85628195 157.64537458 64.56044149 159.17028359 65.28515625 160.68359375 C67.04862376 166.39799939 63.96427133 171.91902967 61.69140625 177.1015625 C61.36462387 177.86044769 61.03784149 178.61933289 60.70115662 179.4012146 C59.66114784 181.81188396 58.61184183 184.21838089 57.5625 186.625 C56.86074264 188.24974724 56.15956483 189.87474494 55.45898438 191.5 C49.94504959 204.25751889 49.94504959 204.25751889 48 208 C47.34 208 46.68 208 46 208 C33.04824288 177.02321684 20.66621012 145.82006953 8.36181641 114.58154297 C4.62754639 105.10369282 0.85997483 95.64023962 -2.9375 86.1875 C-8.4677186 72.41064665 -13.87401226 58.58626307 -19.25366211 44.75 C-19.92299042 43.02863654 -20.59234224 41.30728222 -21.26171875 39.5859375 C-21.58522812 38.75390808 -21.90873749 37.92187866 -22.24205017 37.06463623 C-24.14665647 32.17242595 -26.07217987 27.28941713 -28.01953125 22.4140625 C-28.66208862 20.79939087 -28.66208862 20.79939087 -29.31762695 19.15209961 C-30.07743747 17.24700377 -30.84246781 15.34397694 -31.61401367 13.44360352 C-32.09898315 12.22435181 -32.09898315 12.22435181 -32.59375 10.98046875 C-32.86896484 10.29879639 -33.14417969 9.61712402 -33.42773438 8.91479492 C-34 7 -34 7 -34 3 C-29.47987919 0.7399396 -23.65749155 0.92921692 -18.6875 0.375 C-17.45064453 0.22804687 -16.21378906 0.08109375 -14.93945312 -0.0703125 C-13.74642578 -0.204375 -12.55339844 -0.3384375 -11.32421875 -0.4765625 C-9.6858606 -0.663396 -9.6858606 -0.663396 -8.0144043 -0.85400391 C-4.95474005 -1.00219207 -2.89625231 -0.99059956 0 0 Z " fill="#FBEDDA" transform="translate(476,188)"/>
<path d="M0 0 C0.33 0 0.66 0 1 0 C1.05837668 3.70826651 1.09372277 7.4164137 1.125 11.125 C1.15013672 12.69507813 1.15013672 12.69507813 1.17578125 14.296875 C1.20929909 19.59269336 1.17213685 24.0571059 -1 29 C-1.33 29 -1.66 29 -2 29 C-2.34057669 19.18003888 -1.28846906 9.70953473 0 0 Z " fill="#FAF3EB" transform="translate(324,730)"/>
<path d="M0 0 C-0.33 5.28 -0.66 10.56 -1 16 C-1.99 15.67 -2.98 15.34 -4 15 C-3.88658363 12.68690295 -3.75896193 10.37449815 -3.625 8.0625 C-3.55539062 6.77472656 -3.48578125 5.48695313 -3.4140625 4.16015625 C-3.27742188 3.11730469 -3.14078125 2.07445312 -3 1 C-1 0 -1 0 0 0 Z " fill="#F6E4D6" transform="translate(332,678)"/>
<path d="M0 0 C0.33 0 0.66 0 1 0 C1.0544207 2.68777802 1.09387266 5.37443212 1.125 8.0625 C1.14175781 8.81466797 1.15851563 9.56683594 1.17578125 10.34179688 C1.21865121 15.29327709 0.58399375 19.30414451 -1 24 C-1.33 24 -1.66 24 -2 24 C-2.28545428 15.86455314 -1.18396883 8.02350304 0 0 Z " fill="#FCF3E5" transform="translate(383,569)"/>
<path d="M0 0 C0.66 0 1.32 0 2 0 C3.03479213 2.41151557 4.0529372 4.82794469 5.0625 7.25 C5.35705078 7.93191406 5.65160156 8.61382812 5.95507812 9.31640625 C7.48321625 13.01989395 8.24129373 15.1840347 7 19 C6.66226562 18.22914063 6.32453125 17.45828125 5.9765625 16.6640625 C5.53054688 15.66117187 5.08453125 14.65828125 4.625 13.625 C3.96371094 12.12839844 3.96371094 12.12839844 3.2890625 10.6015625 C2.13287556 7.91977521 2.13287556 7.91977521 0 6 C-0.125 2.875 -0.125 2.875 0 0 Z " fill="#FBF3ED" transform="translate(352,467)"/>
<path d="M0 0 C0.33 0 0.66 0 1 0 C1.125 7.75 1.125 7.75 0 10 C-0.0396713 11.66619446 -0.04384447 13.33391013 0 15 C-0.99 15 -1.98 15 -3 15 C-2.88623383 12.87436897 -2.75864369 10.7494739 -2.625 8.625 C-2.55539062 7.44164062 -2.48578125 6.25828125 -2.4140625 5.0390625 C-2 2 -2 2 0 0 Z " fill="#F6E3D4" transform="translate(337,620)"/>
<path d="M0 0 C2.31 0.66 4.62 1.32 7 2 C5.02 2.99 5.02 2.99 3 4 C3 5.98 3 7.96 3 10 C1.5 8.9375 1.5 8.9375 0 7 C-0.1875 3.3125 -0.1875 3.3125 0 0 Z " fill="#F6E3D1" transform="translate(816,213)"/>
<path d="M0 0 C0.99 0 1.98 0 3 0 C3.144375 0.78375 3.28875 1.5675 3.4375 2.375 C3.87798925 4.96421018 3.87798925 4.96421018 5 7 C4.34 7.66 3.68 8.32 3 9 C1.68 6.36 0.36 3.72 -1 1 C-0.67 0.67 -0.34 0.34 0 0 Z " fill="#D97868" transform="translate(393,576)"/>
<path d="M0 0 C2.18975773 3.28463659 2.99806563 6.20696275 4 10 C3.01 10 2.02 10 1 10 C0.67 6.7 0.34 3.4 0 0 Z " fill="#F5DDCA" transform="translate(538,343)"/>
<path d="M0 0 C2.31 0.33 4.62 0.66 7 1 C4.35261084 2.4606285 3.10551666 3 0 3 C-0.33 3.99 -0.66 4.98 -1 6 C-1.33 5.34 -1.66 4.68 -2 4 C-1.0625 1.875 -1.0625 1.875 0 0 Z " fill="#B21213" transform="translate(648,125)"/>
<path d="M0 0 C3.125 -0.1875 3.125 -0.1875 6 0 C6.33 0.99 6.66 1.98 7 3 C4.03 3 1.06 3 -2 3 C-1.34 2.01 -0.68 1.02 0 0 Z " fill="#F7E4D5" transform="translate(496,701)"/>
<path d="M0 0 C0.66 0 1.32 0 2 0 C3.20272819 2.40545638 3.10071472 3.94996953 3.0625 6.625 C3.05347656 7.44226563 3.04445313 8.25953125 3.03515625 9.1015625 C3.02355469 9.72804688 3.01195312 10.35453125 3 11 C1.0210244 7.36383344 0.4748935 4.11574371 0 0 Z " fill="#FBF3ED" transform="translate(634,515)"/>
<path d="M0 0 C0 0.66 0 1.32 0 2 C-3.96 1.67 -7.92 1.34 -12 1 C-12 0.67 -12 0.34 -12 0 C-7.6835078 -0.76173392 -4.25566547 -1.16063604 0 0 Z " fill="#F8E5D0" transform="translate(476,188)"/>
<path d="M0 0 C0 0.99 0 1.98 0 3 C-2.64 3 -5.28 3 -8 3 C-8 2.34 -8 1.68 -8 1 C-5.29120665 -0.35439668 -2.99066732 -0.06501451 0 0 Z " fill="#F6E3D3" transform="translate(538,704)"/>
<path d="M0 0 C0.33 0 0.66 0 1 0 C1.33 2.97 1.66 5.94 2 9 C1.01 8.67 0.02 8.34 -1 8 C-1.125 2.25 -1.125 2.25 0 0 Z " fill="#F4DFD5" transform="translate(650,591)"/>
<path d="M0 0 C1.9375 0.3125 1.9375 0.3125 4 1 C4.33 1.99 4.66 2.98 5 4 C3.68 4.33 2.36 4.66 1 5 C0.67 3.35 0.34 1.7 0 0 Z " fill="#F4E5D1" transform="translate(730,807)"/>
<path d="M0 0 C1.28317892 3.84953676 1.06643637 6.94738135 1 11 C-0.5625 9.875 -0.5625 9.875 -2 8 C-1.75528519 5.00224356 -1.34661086 2.69322172 0 0 Z " fill="#C95349" transform="translate(683,741)"/>
<path d="M0 0 C3 3 3 3 5 6 C5 6.99 5 7.98 5 9 C4.34 9 3.68 9 3 9 C2.01 6.03 1.02 3.06 0 0 Z " fill="#FCF8F3" transform="translate(519,387)"/>
<path d="M0 0 C0.33 0 0.66 0 1 0 C0.125 6.75 0.125 6.75 -1 9 C-1.66 9 -2.32 9 -3 9 C-3 7.35 -3 5.7 -3 4 C-2.34 3.67 -1.68 3.34 -1 3 C-0.67 2.01 -0.34 1.02 0 0 Z " fill="#B3312D" transform="translate(547,340)"/>
<path d="M0 0 C2.64 0 5.28 0 8 0 C4.91190305 1.76462683 3.76687864 2 0 2 C0 1.34 0 0.68 0 0 Z " fill="#B82222" transform="translate(339,160)"/>
<path d="M0 0 C-1.8125 1.0625 -1.8125 1.0625 -4 2 C-4.99 1.67 -5.98 1.34 -7 1 C-4.53721199 -0.231394 -2.7204945 -0.07159196 0 0 Z " fill="#B72424" transform="translate(316,168)"/>
<path d="M0 0 C0.33 0 0.66 0 1 0 C1 1.98 1 3.96 1 6 C0.67 6 0.34 6 0 6 C0 4.02 0 2.04 0 0 Z " fill="#B82224" transform="translate(184,608)"/>
<path d="M0 0 C0.66 0.99 1.32 1.98 2 3 C1.01 3 0.02 3 -1 3 C-0.67 2.01 -0.34 1.02 0 0 Z " fill="#C55048" transform="translate(430,153)"/>
<path d="M0 0 C0.33 0 0.66 0 1 0 C1 1.65 1 3.3 1 5 C0.67 5 0.34 5 0 5 C0 3.35 0 1.7 0 0 Z " fill="#CE554A" transform="translate(674,708)"/>
<path d="M0 0 C0.99 0.495 0.99 0.495 2 1 C1.67 1.99 1.34 2.98 1 4 C0.67 2.68 0.34 1.36 0 0 Z " fill="#D5695B" transform="translate(435,684)"/>
<path d="M0 0 C0.33 1.32 0.66 2.64 1 4 C0.34 3.01 -0.32 2.02 -1 1 C-0.67 0.67 -0.34 0.34 0 0 Z " fill="#D36155" transform="translate(666,673)"/>
<path d="M0 0 C0.33 0 0.66 0 1 0 C1 1.65 1 3.3 1 5 C0.67 5 0.34 5 0 5 C0 3.35 0 1.7 0 0 Z " fill="#B72225" transform="translate(192,535)"/>
<path d="M0 0 C0.33 0 0.66 0 1 0 C1 1.65 1 3.3 1 5 C0.67 5 0.34 5 0 5 C0 3.35 0 1.7 0 0 Z " fill="#B92426" transform="translate(200,463)"/>
<path d="M0 0 C4 1 4 1 4 1 Z " fill="#F5E3CC" transform="translate(535,741)"/>
<path d="M0 0 C1 4 1 4 1 4 Z " fill="#BC2627" transform="translate(177,674)"/>
<path d="M0 0 C1 4 1 4 1 4 Z " fill="#D36155" transform="translate(664,665)"/>
<path d="M0 0 C0 3 0 3 0 3 Z " fill="#D26155" transform="translate(426,660)"/>
<path d="M0 0 C0 3 0 3 0 3 Z " fill="#D15F54" transform="translate(425,657)"/>
<path d="M0 0 C0 3 0 3 0 3 Z " fill="#BB2224" transform="translate(201,458)"/>
<path d="M0 0 C1 4 1 4 1 4 Z " fill="#B82424" transform="translate(208,391)"/>
<path d="M0 0 C4 1 4 1 4 1 Z " fill="#B62726" transform="translate(247,184)"/>
<path d="M0 0 C4 1 4 1 4 1 Z " fill="#B82626" transform="translate(280,176)"/>
<path d="M0 0 C0.99 0.495 0.99 0.495 2 1 C1.34 1.66 0.68 2.32 0 3 C0 2.01 0 1.02 0 0 Z " fill="#B92D2C" transform="translate(632,152)"/>
<path d="M0 0 C0.66 0 1.32 0 2 0 C1.67 0.66 1.34 1.32 1 2 C0.67 1.34 0.34 0.68 0 0 Z " fill="#E4998A" transform="translate(208,765)"/>
<path d="M0 0 C0.99 0.495 0.99 0.495 2 1 C1.01 1.495 1.01 1.495 0 2 C0 1.34 0 0.68 0 0 Z " fill="#C75A50" transform="translate(186,757)"/>
<path d="" fill="#CA5048" transform="translate(0,0)"/>
<path d="" fill="#F9E3CD" transform="translate(0,0)"/>
<path d="" fill="#BB2828" transform="translate(0,0)"/>
<path d="" fill="#D46153" transform="translate(0,0)"/>
<path d="" fill="#D26358" transform="translate(0,0)"/>
<path d="" fill="#DB7061" transform="translate(0,0)"/>
<path d="" fill="#D46558" transform="translate(0,0)"/>
<path d="M0 0 C3 1 3 1 3 1 Z " fill="#EEA18E" transform="translate(652,623)"/>
<path d="" fill="#BA2224" transform="translate(0,0)"/>
<path d="M0 0 C0.99 0.495 0.99 0.495 2 1 C1.01 1.495 1.01 1.495 0 2 C0 1.34 0 0.68 0 0 Z " fill="#E79E8A" transform="translate(387,566)"/>
<path d="" fill="#BA2023" transform="translate(0,0)"/>
<path d="M0 0 C0.66 0 1.32 0 2 0 C1.67 0.66 1.34 1.32 1 2 C0.67 1.34 0.34 0.68 0 0 Z " fill="#B92224" transform="translate(193,520)"/>
<path d="" fill="#B92121" transform="translate(0,0)"/>
<path d="" fill="#B92425" transform="translate(0,0)"/>
<path d="" fill="#BB2123" transform="translate(0,0)"/>
<path d="" fill="#BB2323" transform="translate(0,0)"/>
<path d="M0 0 C0.99 0.495 0.99 0.495 2 1 C1.01 1.495 1.01 1.495 0 2 C0 1.34 0 0.68 0 0 Z " fill="#ECA692" transform="translate(540,344)"/>
<path d="" fill="#B82223" transform="translate(0,0)"/>
<path d="M0 0 C0.66 0.66 1.32 1.32 2 2 C1.34 2 0.68 2 0 2 C0 1.34 0 0.68 0 0 Z " fill="#CE5D52" transform="translate(577,265)"/>
<path d="" fill="#E69F89" transform="translate(0,0)"/>
<path d="M0 0 C0.99 0.495 0.99 0.495 2 1 C1.01 1.495 1.01 1.495 0 2 C0 1.34 0 0.68 0 0 Z " fill="#C03C36" transform="translate(610,200)"/>
<path d="M0 0 C0.66 0.66 1.32 1.32 2 2 C1.34 2 0.68 2 0 2 C0 1.34 0 0.68 0 0 Z " fill="#E39B88" transform="translate(444,187)"/>
<path d="M0 0 C3 1 3 1 3 1 Z " fill="#B9312F" transform="translate(786,163)"/>
<path d="M0 0 C3 1 3 1 3 1 Z " fill="#B82324" transform="translate(371,153)"/>
<path d="M0 0 C3 1 3 1 3 1 Z " fill="#B42122" transform="translate(728,146)"/>
<path d="M0 0 C0.66 0.66 1.32 1.32 2 2 C1.34 2 0.68 2 0 2 C0 1.34 0 0.68 0 0 Z " fill="#BB2F2B" transform="translate(635,144)"/>
<path d="M0 0 C3 1 3 1 3 1 Z " fill="#B12223" transform="translate(693,136)"/>
<path d="M0 0 C3 1 3 1 3 1 Z " fill="#B42020" transform="translate(677,131)"/>
<path d="" fill="#EFD6BF" transform="translate(0,0)"/>
<path d="" fill="#F1CDB6" transform="translate(0,0)"/>
<path d="M0 0 C2 1 2 1 2 1 Z " fill="#DB806F" transform="translate(691,783)"/>
<path d="" fill="#F8E3CE" transform="translate(0,0)"/>
<path d="" fill="#CC544A" transform="translate(0,0)"/>
<path d="" fill="#F9E4D0" transform="translate(0,0)"/>
<path d="M0 0 C2 1 2 1 2 1 Z " fill="#BC3A36" transform="translate(169,744)"/>
<path d="M0 0 C2 1 2 1 2 1 Z " fill="#F7E4CE" transform="translate(547,742)"/>
<path d="" fill="#BC342F" transform="translate(0,0)"/>
<path d="" fill="#F0DFC7" transform="translate(0,0)"/>
<path d="M0 0 C2 1 2 1 2 1 Z " fill="#CE564C" transform="translate(672,706)"/>
<path d="M0 0 C2 1 2 1 2 1 Z " fill="#CE584C" transform="translate(672,704)"/>
<path d="" fill="#EAAA94" transform="translate(0,0)"/>
<path d="" fill="#F4E3CC" transform="translate(0,0)"/>
<path d="" fill="#D45F54" transform="translate(0,0)"/>
<path d="" fill="#BC2727" transform="translate(0,0)"/>
<path d="" fill="#D46358" transform="translate(0,0)"/>
<path d="" fill="#D46257" transform="translate(0,0)"/>
<path d="" fill="#BC2627" transform="translate(0,0)"/>
<path d="" fill="#BB2626" transform="translate(0,0)"/>
<path d="" fill="#B92525" transform="translate(0,0)"/>
<path d="" fill="#DA7061" transform="translate(0,0)"/>
<path d="" fill="#D5695B" transform="translate(0,0)"/>
<path d="M0 0 C2 1 2 1 2 1 Z " fill="#DC7465" transform="translate(658,642)"/>
<path d="" fill="#D36255" transform="translate(0,0)"/>
<path d="" fill="#D46357" transform="translate(0,0)"/>
<path d="M0 0 C2 1 2 1 2 1 Z " fill="#D56759" transform="translate(411,623)"/>
<path d="M0 0 C2 1 2 1 2 1 Z " fill="#D76C5D" transform="translate(409,622)"/>
<path d="" fill="#B32424" transform="translate(0,0)"/>
<path d="" fill="#BB2224" transform="translate(0,0)"/>
<path d="" fill="#E28878" transform="translate(0,0)"/>
<path d="" fill="#B82525" transform="translate(0,0)"/>
<path d="" fill="#D77D6E" transform="translate(0,0)"/>
<path d="" fill="#B72626" transform="translate(0,0)"/>
<path d="" fill="#BA2325" transform="translate(0,0)"/>
<path d="" fill="#BA2422" transform="translate(0,0)"/>
<path d="" fill="#BA2524" transform="translate(0,0)"/>
<path d="" fill="#BC2626" transform="translate(0,0)"/>
<path d="M0 0 C2 1 2 1 2 1 Z " fill="#BB2224" transform="translate(200,456)"/>
<path d="" fill="#BA2225" transform="translate(0,0)"/>
<path d="" fill="#BB2223" transform="translate(0,0)"/>
<path d="" fill="#BA2224" transform="translate(0,0)"/>
<path d="M0 0 C2 1 2 1 2 1 Z " fill="#BA2122" transform="translate(210,368)"/>
<path d="" fill="#BB2323" transform="translate(0,0)"/>
<path d="" fill="#BB2425" transform="translate(0,0)"/>
<path d="" fill="#E28A79" transform="translate(0,0)"/>
<path d="" fill="#E4907E" transform="translate(0,0)"/>
<path d="" fill="#DD8573" transform="translate(0,0)"/>
<path d="" fill="#F6E6D0" transform="translate(0,0)"/>
<path d="" fill="#D0695D" transform="translate(0,0)"/>
<path d="" fill="#BB2323" transform="translate(0,0)"/>
<path d="" fill="#C85850" transform="translate(0,0)"/>
<path d="" fill="#BC2425" transform="translate(0,0)"/>
<path d="" fill="#CE594D" transform="translate(0,0)"/>
<path d="" fill="#CE5A4F" transform="translate(0,0)"/>
<path d="" fill="#C34B45" transform="translate(0,0)"/>
<path d="" fill="#BD2324" transform="translate(0,0)"/>
<path d="M0 0 C2 1 2 1 2 1 Z " fill="#B92424" transform="translate(225,229)"/>
<path d="" fill="#C2453D" transform="translate(0,0)"/>
<path d="M0 0 C2 1 2 1 2 1 Z " fill="#EFCFB6" transform="translate(830,216)"/>
<path d="" fill="#BF3D39" transform="translate(0,0)"/>
<path d="" fill="#C33C37" transform="translate(0,0)"/>
<path d="" fill="#BD3631" transform="translate(0,0)"/>
<path d="M0 0 C2 1 2 1 2 1 Z " fill="#F2D0B8" transform="translate(476,186)"/>
<path d="" fill="#E08F7D" transform="translate(0,0)"/>
<path d="" fill="#CE6A60" transform="translate(0,0)"/>
<path d="M0 0 C2 1 2 1 2 1 Z " fill="#BA2524" transform="translate(272,178)"/>
<path d="M0 0 C2 1 2 1 2 1 Z " fill="#C1473E" transform="translate(811,170)"/>
<path d="M0 0 C2 1 2 1 2 1 Z " fill="#BA2424" transform="translate(298,169)"/>
<path d="M0 0 C2 1 2 1 2 1 Z " fill="#B93C39" transform="translate(805,168)"/>
<path d="M0 0 C2 1 2 1 2 1 Z " fill="#B92223" transform="translate(304,168)"/>
<path d="M0 0 C2 1 2 1 2 1 Z " fill="#BA2221" transform="translate(336,162)"/>
<path d="" fill="#BC322C" transform="translate(0,0)"/>
<path d="" fill="#C45248" transform="translate(0,0)"/>
<path d="M0 0 C2 1 2 1 2 1 Z " fill="#B42424" transform="translate(758,155)"/>
<path d="M0 0 C2 1 2 1 2 1 Z " fill="#B92322" transform="translate(368,154)"/>
<path d="" fill="#BA2B2A" transform="translate(0,0)"/>
<path d="M0 0 C2 1 2 1 2 1 Z " fill="#BA2A28" transform="translate(404,145)"/>
<path d="M0 0 C2 1 2 1 2 1 Z " fill="#B22121" transform="translate(673,130)"/>
<path d="" fill="#B02122" transform="translate(0,0)"/>
<path d="M0 0 C2 1 2 1 2 1 Z " fill="#B12121" transform="translate(667,128)"/>
<path d="" fill="#94836F" transform="translate(0,0)"/>
<path d="" fill="#F3E1C9" transform="translate(0,0)"/>
<path d="" fill="#F1E2CA" transform="translate(0,0)"/>
<path d="" fill="#F3E4CC" transform="translate(0,0)"/>
<path d="" fill="#F3E1CC" transform="translate(0,0)"/>
<path d="" fill="#F6E1CC" transform="translate(0,0)"/>
<path d="" fill="#E7D2BC" transform="translate(0,0)"/>
<path d="" fill="#E4CEB7" transform="translate(0,0)"/>
<path d="" fill="#E8D1BC" transform="translate(0,0)"/>
<path d="" fill="#F3E1C9" transform="translate(0,0)"/>
<path d="" fill="#EBD5BF" transform="translate(0,0)"/>
<path d="" fill="#F2E1C8" transform="translate(0,0)"/>
<path d="" fill="#F6E5CD" transform="translate(0,0)"/>
<path d="" fill="#F2D7C1" transform="translate(0,0)"/>
<path d="" fill="#F0D4BF" transform="translate(0,0)"/>
<path d="" fill="#DB806E" transform="translate(0,0)"/>
<path d="" fill="#F2CDB7" transform="translate(0,0)"/>
<path d="" fill="#DB7A6A" transform="translate(0,0)"/>
<path d="" fill="#F2CDB5" transform="translate(0,0)"/>
<path d="" fill="#F4E4CB" transform="translate(0,0)"/>
<path d="" fill="#D46C5E" transform="translate(0,0)"/>
<path d="" fill="#E3927D" transform="translate(0,0)"/>
<path d="" fill="#EFC0AA" transform="translate(0,0)"/>
<path d="" fill="#E08975" transform="translate(0,0)"/>
<path d="" fill="#E9A38C" transform="translate(0,0)"/>
<path d="" fill="#EDAF98" transform="translate(0,0)"/>
<path d="" fill="#F8E7CD" transform="translate(0,0)"/>
<path d="" fill="#F6E6CF" transform="translate(0,0)"/>
<path d="" fill="#DB8B7B" transform="translate(0,0)"/>
<path d="" fill="#C85D50" transform="translate(0,0)"/>
<path d="" fill="#F4E4CD" transform="translate(0,0)"/>
<path d="" fill="#C7554B" transform="translate(0,0)"/>
<path d="" fill="#CE544C" transform="translate(0,0)"/>
<path d="" fill="#F4DFC8" transform="translate(0,0)"/>
<path d="" fill="#BF403B" transform="translate(0,0)"/>
<path d="" fill="#F5E2CD" transform="translate(0,0)"/>
<path d="" fill="#F8E4CE" transform="translate(0,0)"/>
<path d="" fill="#F7E5CE" transform="translate(0,0)"/>
<path d="" fill="#F9E7CF" transform="translate(0,0)"/>
<path d="" fill="#F7E6CD" transform="translate(0,0)"/>
<path d="" fill="#BA3B36" transform="translate(0,0)"/>
<path d="" fill="#F8E6CD" transform="translate(0,0)"/>
<path d="" fill="#BC3634" transform="translate(0,0)"/>
<path d="" fill="#F5E4CD" transform="translate(0,0)"/>
<path d="" fill="#BB3A36" transform="translate(0,0)"/>
<path d="" fill="#F6E3CC" transform="translate(0,0)"/>
<path d="" fill="#C75147" transform="translate(0,0)"/>
<path d="" fill="#F7DDC7" transform="translate(0,0)"/>
<path d="" fill="#F5E1C9" transform="translate(0,0)"/>
<path d="" fill="#F3E2CB" transform="translate(0,0)"/>
<path d="" fill="#BC3332" transform="translate(0,0)"/>
<path d="" fill="#F5DBC4" transform="translate(0,0)"/>
<path d="" fill="#F5D7C0" transform="translate(0,0)"/>
<path d="" fill="#BC312F" transform="translate(0,0)"/>
<path d="" fill="#CF554C" transform="translate(0,0)"/>
<path d="" fill="#BD302F" transform="translate(0,0)"/>
<path d="" fill="#CE5147" transform="translate(0,0)"/>
<path d="" fill="#BC2F2F" transform="translate(0,0)"/>
<path d="" fill="#BC2F2D" transform="translate(0,0)"/>
<path d="" fill="#F9E5CD" transform="translate(0,0)"/>
<path d="" fill="#F7E0CB" transform="translate(0,0)"/>
<path d="" fill="#CA5349" transform="translate(0,0)"/>
<path d="" fill="#E3917E" transform="translate(0,0)"/>
<path d="" fill="#CC554B" transform="translate(0,0)"/>
<path d="" fill="#DF8979" transform="translate(0,0)"/>
<path d="" fill="#DD8675" transform="translate(0,0)"/>
<path d="" fill="#D97063" transform="translate(0,0)"/>
<path d="" fill="#D86D5F" transform="translate(0,0)"/>
<path d="" fill="#D6675A" transform="translate(0,0)"/>
<path d="" fill="#BB272A" transform="translate(0,0)"/>
<path d="" fill="#D16557" transform="translate(0,0)"/>
<path d="" fill="#F8E2CC" transform="translate(0,0)"/>
<path d="" fill="#D6665A" transform="translate(0,0)"/>
<path d="" fill="#FAE5CD" transform="translate(0,0)"/>
<path d="" fill="#D15E50" transform="translate(0,0)"/>
<path d="" fill="#BB2528" transform="translate(0,0)"/>
<path d="" fill="#F8D6C1" transform="translate(0,0)"/>
<path d="" fill="#D46155" transform="translate(0,0)"/>
<path d="" fill="#BB2828" transform="translate(0,0)"/>
<path d="" fill="#B92828" transform="translate(0,0)"/>
<path d="" fill="#B92728" transform="translate(0,0)"/>
<path d="" fill="#B82727" transform="translate(0,0)"/>
<path d="" fill="#D16354" transform="translate(0,0)"/>
<path d="" fill="#D87063" transform="translate(0,0)"/>
<path d="" fill="#BB2927" transform="translate(0,0)"/>
<path d="" fill="#DB7463" transform="translate(0,0)"/>
<path d="" fill="#D4665A" transform="translate(0,0)"/>
<path d="" fill="#BC2625" transform="translate(0,0)"/>
<path d="" fill="#E08271" transform="translate(0,0)"/>
<path d="" fill="#F6C2AE" transform="translate(0,0)"/>
<path d="" fill="#D46859" transform="translate(0,0)"/>
<path d="" fill="#BA2829" transform="translate(0,0)"/>
<path d="" fill="#E08473" transform="translate(0,0)"/>
<path d="" fill="#D56658" transform="translate(0,0)"/>
<path d="" fill="#D15F53" transform="translate(0,0)"/>
<path d="" fill="#E28874" transform="translate(0,0)"/>
<path d="" fill="#D86D5D" transform="translate(0,0)"/>
<path d="" fill="#FAD9C4" transform="translate(0,0)"/>
<path d="" fill="#DC7162" transform="translate(0,0)"/>
<path d="" fill="#EB9081" transform="translate(0,0)"/>
<path d="" fill="#F7D4BD" transform="translate(0,0)"/>
<path d="" fill="#D76D5F" transform="translate(0,0)"/>
<path d="" fill="#D96C5D" transform="translate(0,0)"/>
<path d="" fill="#F9DAC3" transform="translate(0,0)"/>
<path d="" fill="#D86C5D" transform="translate(0,0)"/>
<path d="" fill="#EC9B87" transform="translate(0,0)"/>
<path d="" fill="#F9D9C2" transform="translate(0,0)"/>
<path d="" fill="#DC7161" transform="translate(0,0)"/>
<path d="" fill="#D87164" transform="translate(0,0)"/>
<path d="" fill="#B92024" transform="translate(0,0)"/>
<path d="" fill="#DA7164" transform="translate(0,0)"/>
<path d="" fill="#BA1F24" transform="translate(0,0)"/>
<path d="" fill="#B82224" transform="translate(0,0)"/>
<path d="" fill="#D67262" transform="translate(0,0)"/>
<path d="" fill="#B82424" transform="translate(0,0)"/>
<path d="" fill="#B92022" transform="translate(0,0)"/>
<path d="" fill="#E18774" transform="translate(0,0)"/>
<path d="" fill="#BA2426" transform="translate(0,0)"/>
<path d="" fill="#E6A086" transform="translate(0,0)"/>
<path d="" fill="#BA2523" transform="translate(0,0)"/>
<path d="" fill="#E49786" transform="translate(0,0)"/>
<path d="" fill="#B92524" transform="translate(0,0)"/>
<path d="" fill="#ECA695" transform="translate(0,0)"/>
<path d="" fill="#F7E7D0" transform="translate(0,0)"/>
<path d="" fill="#BB2728" transform="translate(0,0)"/>
<path d="" fill="#F8E6D1" transform="translate(0,0)"/>
<path d="" fill="#BA2322" transform="translate(0,0)"/>
<path d="" fill="#F6E8D3" transform="translate(0,0)"/>
<path d="" fill="#F6E7D0" transform="translate(0,0)"/>
<path d="" fill="#BB2424" transform="translate(0,0)"/>
<path d="" fill="#BB2123" transform="translate(0,0)"/>
<path d="" fill="#BB2324" transform="translate(0,0)"/>
<path d="" fill="#BB2525" transform="translate(0,0)"/>
<path d="" fill="#BC2223" transform="translate(0,0)"/>
<path d="" fill="#F6E9D0" transform="translate(0,0)"/>
<path d="" fill="#BC2323" transform="translate(0,0)"/>
<path d="" fill="#BB2425" transform="translate(0,0)"/>
<path d="" fill="#BA2726" transform="translate(0,0)"/>
<path d="" fill="#F8E9D0" transform="translate(0,0)"/>
<path d="" fill="#F8E7D2" transform="translate(0,0)"/>
<path d="" fill="#F9E7D0" transform="translate(0,0)"/>
<path d="" fill="#B92022" transform="translate(0,0)"/>
<path d="" fill="#BD2425" transform="translate(0,0)"/>
<path d="" fill="#BA2424" transform="translate(0,0)"/>
<path d="" fill="#BC2022" transform="translate(0,0)"/>
<path d="" fill="#F7E8D2" transform="translate(0,0)"/>
<path d="" fill="#F7E7D1" transform="translate(0,0)"/>
<path d="" fill="#BD2424" transform="translate(0,0)"/>
<path d="" fill="#BD2525" transform="translate(0,0)"/>
<path d="" fill="#EB9E8B" transform="translate(0,0)"/>
<path d="" fill="#BD2725" transform="translate(0,0)"/>
<path d="" fill="#F6E7D1" transform="translate(0,0)"/>
<path d="" fill="#E18D79" transform="translate(0,0)"/>
<path d="" fill="#EFB5A1" transform="translate(0,0)"/>
<path d="" fill="#DF8170" transform="translate(0,0)"/>
<path d="" fill="#D57A68" transform="translate(0,0)"/>
<path d="" fill="#D57465" transform="translate(0,0)"/>
<path d="" fill="#D47766" transform="translate(0,0)"/>
<path d="" fill="#DE7F70" transform="translate(0,0)"/>
<path d="" fill="#D97263" transform="translate(0,0)"/>
<path d="" fill="#D97061" transform="translate(0,0)"/>
<path d="" fill="#F6E7D1" transform="translate(0,0)"/>
<path d="" fill="#F9D7C0" transform="translate(0,0)"/>
<path d="" fill="#F6E8D2" transform="translate(0,0)"/>
<path d="" fill="#F9D8C1" transform="translate(0,0)"/>
<path d="" fill="#BC2224" transform="translate(0,0)"/>
<path d="" fill="#BD2224" transform="translate(0,0)"/>
<path d="" fill="#D37061" transform="translate(0,0)"/>
<path d="" fill="#BB1F22" transform="translate(0,0)"/>
<path d="" fill="#D56A5D" transform="translate(0,0)"/>
<path d="" fill="#F7E5D0" transform="translate(0,0)"/>
<path d="" fill="#D3685A" transform="translate(0,0)"/>
<path d="" fill="#BC2423" transform="translate(0,0)"/>
<path d="" fill="#D76C5F" transform="translate(0,0)"/>
<path d="" fill="#F7E5CF" transform="translate(0,0)"/>
<path d="" fill="#CD6156" transform="translate(0,0)"/>
<path d="" fill="#BA2322" transform="translate(0,0)"/>
<path d="" fill="#CF6157" transform="translate(0,0)"/>
<path d="" fill="#D36558" transform="translate(0,0)"/>
<path d="" fill="#D46A5C" transform="translate(0,0)"/>
<path d="" fill="#892E27" transform="translate(0,0)"/>
<path d="" fill="#D16155" transform="translate(0,0)"/>
<path d="" fill="#D06057" transform="translate(0,0)"/>
<path d="" fill="#F6E4CD" transform="translate(0,0)"/>
<path d="" fill="#BB2725" transform="translate(0,0)"/>
<path d="" fill="#BC2625" transform="translate(0,0)"/>
<path d="" fill="#C9564D" transform="translate(0,0)"/>
<path d="" fill="#CF5D50" transform="translate(0,0)"/>
<path d="" fill="#D05B51" transform="translate(0,0)"/>
<path d="" fill="#CF5F52" transform="translate(0,0)"/>
<path d="" fill="#CE5F53" transform="translate(0,0)"/>
<path d="" fill="#CA5046" transform="translate(0,0)"/>
<path d="" fill="#CB4F46" transform="translate(0,0)"/>
<path d="" fill="#CA544A" transform="translate(0,0)"/>
<path d="" fill="#C94F4A" transform="translate(0,0)"/>
<path d="" fill="#B62726" transform="translate(0,0)"/>
<path d="" fill="#BB2426" transform="translate(0,0)"/>
<path d="" fill="#CA4E45" transform="translate(0,0)"/>
<path d="" fill="#C74B44" transform="translate(0,0)"/>
<path d="" fill="#C74A42" transform="translate(0,0)"/>
<path d="" fill="#FBE4CC" transform="translate(0,0)"/>
<path d="" fill="#F2E1C9" transform="translate(0,0)"/>
<path d="" fill="#FAE0C8" transform="translate(0,0)"/>
<path d="" fill="#FAE1CA" transform="translate(0,0)"/>
<path d="" fill="#BA2324" transform="translate(0,0)"/>
<path d="" fill="#FBE0CA" transform="translate(0,0)"/>
<path d="" fill="#C14A40" transform="translate(0,0)"/>
<path d="" fill="#C4473E" transform="translate(0,0)"/>
<path d="" fill="#BB2526" transform="translate(0,0)"/>
<path d="" fill="#FAE3CA" transform="translate(0,0)"/>
<path d="" fill="#E5A28E" transform="translate(0,0)"/>
<path d="" fill="#F7DCC6" transform="translate(0,0)"/>
<path d="" fill="#C13B38" transform="translate(0,0)"/>
<path d="" fill="#F6D6C1" transform="translate(0,0)"/>
<path d="" fill="#CA6558" transform="translate(0,0)"/>
<path d="" fill="#E4A38C" transform="translate(0,0)"/>
<path d="" fill="#F2D0B9" transform="translate(0,0)"/>
<path d="" fill="#B72724" transform="translate(0,0)"/>
<path d="" fill="#F2D4BB" transform="translate(0,0)"/>
<path d="" fill="#BA2727" transform="translate(0,0)"/>
<path d="" fill="#B82724" transform="translate(0,0)"/>
<path d="" fill="#E29884" transform="translate(0,0)"/>
<path d="" fill="#DE8777" transform="translate(0,0)"/>
<path d="" fill="#B72425" transform="translate(0,0)"/>
<path d="" fill="#D06F64" transform="translate(0,0)"/>
<path d="" fill="#B72623" transform="translate(0,0)"/>
<path d="" fill="#B72526" transform="translate(0,0)"/>
<path d="" fill="#BD3532" transform="translate(0,0)"/>
<path d="" fill="#B72323" transform="translate(0,0)"/>
<path d="" fill="#B72621" transform="translate(0,0)"/>
<path d="" fill="#CE6A5B" transform="translate(0,0)"/>
<path d="" fill="#BC3431" transform="translate(0,0)"/>
<path d="" fill="#BB2423" transform="translate(0,0)"/>
<path d="" fill="#B82424" transform="translate(0,0)"/>
<path d="" fill="#BB3130" transform="translate(0,0)"/>
<path d="" fill="#C0312E" transform="translate(0,0)"/>
<path d="" fill="#BB2423" transform="translate(0,0)"/>
<path d="" fill="#BF312C" transform="translate(0,0)"/>
<path d="" fill="#BD3430" transform="translate(0,0)"/>
<path d="" fill="#BA2E2B" transform="translate(0,0)"/>
<path d="" fill="#BD322D" transform="translate(0,0)"/>
<path d="" fill="#B72324" transform="translate(0,0)"/>
<path d="" fill="#B72B2B" transform="translate(0,0)"/>
<path d="" fill="#B81F22" transform="translate(0,0)"/>
<path d="" fill="#C65149" transform="translate(0,0)"/>
<path d="" fill="#BB2222" transform="translate(0,0)"/>
<path d="" fill="#B62625" transform="translate(0,0)"/>
<path d="" fill="#B62625" transform="translate(0,0)"/>
<path d="" fill="#B7231F" transform="translate(0,0)"/>
<path d="" fill="#BD2E2C" transform="translate(0,0)"/>
<path d="" fill="#B92423" transform="translate(0,0)"/>
<path d="" fill="#BE2F2B" transform="translate(0,0)"/>
<path d="" fill="#B92829" transform="translate(0,0)"/>
<path d="" fill="#B32222" transform="translate(0,0)"/>
<path d="" fill="#B52122" transform="translate(0,0)"/>
<path d="" fill="#BB2E2A" transform="translate(0,0)"/>
<path d="" fill="#BF4741" transform="translate(0,0)"/>
<path d="" fill="#B62221" transform="translate(0,0)"/>
<path d="" fill="#BC2B2C" transform="translate(0,0)"/>
<path d="" fill="#B12221" transform="translate(0,0)"/>
</svg>
